<mxfile host="app.diagrams.net" modified="2023-10-17T07:33:50.726Z" agent="Mozilla/5.0 (Windows NT 10.0; Win64; x64) AppleWebKit/537.36 (KHTML, like Gecko) Chrome/117.0.0.0 Safari/537.36" etag="WmUkzhwKE3iDLOKqeQGs" version="22.0.4" type="google">
  <diagram name="페이지-1" id="KGUA7iRXO5Pt4Tn00xt2">
    <mxGraphModel grid="1" page="1" gridSize="10" guides="1" tooltips="1" connect="1" arrows="1" fold="1" pageScale="1" pageWidth="827" pageHeight="1169" math="0" shadow="1">
      <root>
        <mxCell id="0" />
        <mxCell id="1" parent="0" />
        <mxCell id="dXAgPAIM6FT5MK85hw38-5" value="" style="rounded=1;whiteSpace=wrap;html=1;labelBackgroundColor=none;" vertex="1" parent="1">
          <mxGeometry x="240" y="520" width="320" height="280" as="geometry" />
        </mxCell>
        <mxCell id="WvgHAvw0tjZaKCDluKop-19" value="" style="rounded=1;whiteSpace=wrap;html=1;labelBackgroundColor=none;" vertex="1" parent="1">
          <mxGeometry x="50" y="80" width="700" height="400" as="geometry" />
        </mxCell>
        <mxCell id="dXAgPAIM6FT5MK85hw38-4" style="edgeStyle=orthogonalEdgeStyle;rounded=0;orthogonalLoop=1;jettySize=auto;html=1;entryX=0.5;entryY=1;entryDx=0;entryDy=0;labelBackgroundColor=none;fontColor=default;" edge="1" parent="1" source="WvgHAvw0tjZaKCDluKop-2" target="dXAgPAIM6FT5MK85hw38-1">
          <mxGeometry relative="1" as="geometry" />
        </mxCell>
        <mxCell id="DKyKciuYVTxxolibCU_y-459" value="&lt;span style=&quot;font-size: 14px;&quot;&gt;USB&lt;/span&gt;" style="edgeLabel;html=1;align=center;verticalAlign=middle;resizable=0;points=[];fontSize=14;fontStyle=1" connectable="0" vertex="1" parent="dXAgPAIM6FT5MK85hw38-4">
          <mxGeometry x="-0.2856" y="2" relative="1" as="geometry">
            <mxPoint x="2" y="-21" as="offset" />
          </mxGeometry>
        </mxCell>
        <mxCell id="WvgHAvw0tjZaKCDluKop-2" value="카메라" style="rounded=1;whiteSpace=wrap;html=1;labelBackgroundColor=none;" vertex="1" parent="1">
          <mxGeometry x="340" y="870" width="120" height="80" as="geometry" />
        </mxCell>
        <mxCell id="WvgHAvw0tjZaKCDluKop-6" style="edgeStyle=orthogonalEdgeStyle;rounded=0;orthogonalLoop=1;jettySize=auto;html=1;entryX=0.5;entryY=1;entryDx=0;entryDy=0;labelBackgroundColor=none;fontColor=default;" edge="1" parent="1" source="WvgHAvw0tjZaKCDluKop-3" target="WvgHAvw0tjZaKCDluKop-5">
          <mxGeometry relative="1" as="geometry" />
        </mxCell>
        <mxCell id="WvgHAvw0tjZaKCDluKop-3" value="&lt;font style=&quot;font-size: 15px;&quot;&gt;&lt;b&gt;stm32&lt;/b&gt;&lt;/font&gt;" style="rounded=1;whiteSpace=wrap;html=1;labelBackgroundColor=none;strokeWidth=3;" vertex="1" parent="1">
          <mxGeometry x="280" y="560" width="240" height="80" as="geometry" />
        </mxCell>
        <mxCell id="DKyKciuYVTxxolibCU_y-434" style="edgeStyle=orthogonalEdgeStyle;rounded=0;orthogonalLoop=1;jettySize=auto;html=1;exitX=1;exitY=0.5;exitDx=0;exitDy=0;entryX=0;entryY=0.5;entryDx=0;entryDy=0;" edge="1" parent="1" source="WvgHAvw0tjZaKCDluKop-5" target="WvgHAvw0tjZaKCDluKop-14">
          <mxGeometry relative="1" as="geometry">
            <Array as="points">
              <mxPoint x="490" y="270" />
              <mxPoint x="490" y="400" />
            </Array>
          </mxGeometry>
        </mxCell>
        <mxCell id="DKyKciuYVTxxolibCU_y-436" value="Pin0(PA6)" style="edgeLabel;html=1;align=center;verticalAlign=middle;resizable=0;points=[];fontStyle=1" connectable="0" vertex="1" parent="DKyKciuYVTxxolibCU_y-434">
          <mxGeometry x="-0.0167" y="3" relative="1" as="geometry">
            <mxPoint x="47" y="38" as="offset" />
          </mxGeometry>
        </mxCell>
        <mxCell id="DKyKciuYVTxxolibCU_y-439" style="edgeStyle=orthogonalEdgeStyle;rounded=0;orthogonalLoop=1;jettySize=auto;html=1;exitX=1;exitY=0.5;exitDx=0;exitDy=0;" edge="1" parent="1" source="WvgHAvw0tjZaKCDluKop-5" target="WvgHAvw0tjZaKCDluKop-9">
          <mxGeometry relative="1" as="geometry">
            <Array as="points">
              <mxPoint x="480" y="270" />
              <mxPoint x="480" y="270" />
            </Array>
          </mxGeometry>
        </mxCell>
        <mxCell id="DKyKciuYVTxxolibCU_y-455" value="Pin1(PA7)" style="edgeLabel;html=1;align=center;verticalAlign=middle;resizable=0;points=[];fontStyle=1" connectable="0" vertex="1" parent="DKyKciuYVTxxolibCU_y-439">
          <mxGeometry x="0.4206" y="-1" relative="1" as="geometry">
            <mxPoint x="-5" y="-1" as="offset" />
          </mxGeometry>
        </mxCell>
        <mxCell id="DKyKciuYVTxxolibCU_y-441" style="edgeStyle=orthogonalEdgeStyle;rounded=0;orthogonalLoop=1;jettySize=auto;html=1;exitX=1;exitY=0.5;exitDx=0;exitDy=0;entryX=0;entryY=0.5;entryDx=0;entryDy=0;" edge="1" parent="1" source="WvgHAvw0tjZaKCDluKop-5" target="WvgHAvw0tjZaKCDluKop-13">
          <mxGeometry relative="1" as="geometry">
            <mxPoint x="480" y="150" as="targetPoint" />
            <Array as="points">
              <mxPoint x="490" y="270" />
              <mxPoint x="490" y="150" />
            </Array>
          </mxGeometry>
        </mxCell>
        <mxCell id="DKyKciuYVTxxolibCU_y-443" value="Pin2(PA8)" style="edgeLabel;html=1;align=center;verticalAlign=middle;resizable=0;points=[];fontStyle=1" connectable="0" vertex="1" parent="DKyKciuYVTxxolibCU_y-441">
          <mxGeometry x="0.6865" y="3" relative="1" as="geometry">
            <mxPoint y="3" as="offset" />
          </mxGeometry>
        </mxCell>
        <mxCell id="DKyKciuYVTxxolibCU_y-456" value="PIn3(PA9)" style="edgeLabel;html=1;align=center;verticalAlign=middle;resizable=0;points=[];fontStyle=1" connectable="0" vertex="1" parent="DKyKciuYVTxxolibCU_y-441">
          <mxGeometry x="0.7005" y="5" relative="1" as="geometry">
            <mxPoint x="-284" y="255" as="offset" />
          </mxGeometry>
        </mxCell>
        <mxCell id="DKyKciuYVTxxolibCU_y-451" style="edgeStyle=orthogonalEdgeStyle;rounded=0;orthogonalLoop=1;jettySize=auto;html=1;exitX=0;exitY=0.5;exitDx=0;exitDy=0;entryX=1;entryY=0.5;entryDx=0;entryDy=0;" edge="1" parent="1" source="WvgHAvw0tjZaKCDluKop-5" target="DKyKciuYVTxxolibCU_y-1">
          <mxGeometry relative="1" as="geometry">
            <Array as="points">
              <mxPoint x="270" y="270" />
              <mxPoint x="270" y="270" />
            </Array>
          </mxGeometry>
        </mxCell>
        <mxCell id="DKyKciuYVTxxolibCU_y-452" style="edgeStyle=orthogonalEdgeStyle;rounded=0;orthogonalLoop=1;jettySize=auto;html=1;exitX=0;exitY=0.5;exitDx=0;exitDy=0;entryX=1;entryY=0.5;entryDx=0;entryDy=0;" edge="1" parent="1" source="WvgHAvw0tjZaKCDluKop-5" target="DKyKciuYVTxxolibCU_y-448">
          <mxGeometry relative="1" as="geometry">
            <Array as="points">
              <mxPoint x="310" y="270" />
              <mxPoint x="310" y="150" />
            </Array>
          </mxGeometry>
        </mxCell>
        <mxCell id="DKyKciuYVTxxolibCU_y-458" value="PIn5(PA11)" style="edgeLabel;html=1;align=center;verticalAlign=middle;resizable=0;points=[];fontStyle=1" connectable="0" vertex="1" parent="DKyKciuYVTxxolibCU_y-452">
          <mxGeometry x="0.6623" y="3" relative="1" as="geometry">
            <mxPoint x="1" y="-3" as="offset" />
          </mxGeometry>
        </mxCell>
        <mxCell id="DKyKciuYVTxxolibCU_y-453" style="edgeStyle=orthogonalEdgeStyle;rounded=0;orthogonalLoop=1;jettySize=auto;html=1;exitX=0;exitY=0.5;exitDx=0;exitDy=0;entryX=1;entryY=0.5;entryDx=0;entryDy=0;" edge="1" parent="1" source="WvgHAvw0tjZaKCDluKop-5" target="WvgHAvw0tjZaKCDluKop-17">
          <mxGeometry relative="1" as="geometry">
            <mxPoint x="350" y="200" as="sourcePoint" />
            <mxPoint x="230" y="330" as="targetPoint" />
            <Array as="points">
              <mxPoint x="310" y="270" />
              <mxPoint x="310" y="400" />
            </Array>
          </mxGeometry>
        </mxCell>
        <mxCell id="DKyKciuYVTxxolibCU_y-457" value="Pin4(PA10)" style="edgeLabel;html=1;align=center;verticalAlign=middle;resizable=0;points=[];fontStyle=1" connectable="0" vertex="1" parent="DKyKciuYVTxxolibCU_y-453">
          <mxGeometry x="0.6852" relative="1" as="geometry">
            <mxPoint y="-130" as="offset" />
          </mxGeometry>
        </mxCell>
        <mxCell id="WvgHAvw0tjZaKCDluKop-5" value="&lt;font style=&quot;font-size: 15px;&quot;&gt;&lt;b&gt;PCA9685&lt;br&gt;(모터드라이버)&lt;/b&gt;&lt;/font&gt;" style="rounded=1;whiteSpace=wrap;html=1;labelBackgroundColor=none;strokeWidth=3;" vertex="1" parent="1">
          <mxGeometry x="340" y="100" width="120" height="340" as="geometry" />
        </mxCell>
        <mxCell id="WvgHAvw0tjZaKCDluKop-8" style="edgeStyle=orthogonalEdgeStyle;rounded=0;orthogonalLoop=1;jettySize=auto;html=1;entryX=1;entryY=0.5;entryDx=0;entryDy=0;labelBackgroundColor=none;fontColor=default;" edge="1" parent="1" source="WvgHAvw0tjZaKCDluKop-7" target="WvgHAvw0tjZaKCDluKop-3">
          <mxGeometry relative="1" as="geometry">
            <Array as="points">
              <mxPoint x="730" y="600" />
              <mxPoint x="730" y="600" />
            </Array>
          </mxGeometry>
        </mxCell>
        <mxCell id="dXAgPAIM6FT5MK85hw38-2" style="edgeStyle=orthogonalEdgeStyle;rounded=0;orthogonalLoop=1;jettySize=auto;html=1;entryX=1;entryY=0.5;entryDx=0;entryDy=0;labelBackgroundColor=none;fontColor=default;" edge="1" parent="1" source="WvgHAvw0tjZaKCDluKop-7" target="dXAgPAIM6FT5MK85hw38-1">
          <mxGeometry relative="1" as="geometry">
            <mxPoint x="660" y="700" as="targetPoint" />
            <Array as="points">
              <mxPoint x="660" y="600" />
              <mxPoint x="660" y="720" />
            </Array>
          </mxGeometry>
        </mxCell>
        <mxCell id="DKyKciuYVTxxolibCU_y-461" style="edgeStyle=orthogonalEdgeStyle;rounded=0;orthogonalLoop=1;jettySize=auto;html=1;exitX=0.5;exitY=0;exitDx=0;exitDy=0;entryX=0.5;entryY=0;entryDx=0;entryDy=0;" edge="1" parent="1" source="WvgHAvw0tjZaKCDluKop-7" target="WvgHAvw0tjZaKCDluKop-5">
          <mxGeometry relative="1" as="geometry">
            <Array as="points">
              <mxPoint x="935" y="-50" />
              <mxPoint x="400" y="-50" />
            </Array>
          </mxGeometry>
        </mxCell>
        <mxCell id="WvgHAvw0tjZaKCDluKop-7" value="&lt;font size=&quot;1&quot; style=&quot;&quot;&gt;&lt;b style=&quot;font-size: 24px;&quot;&gt;전원&lt;/b&gt;&lt;/font&gt;" style="rounded=1;whiteSpace=wrap;html=1;labelBackgroundColor=none;strokeWidth=6;" vertex="1" parent="1">
          <mxGeometry x="850" y="200" width="170" height="160" as="geometry" />
        </mxCell>
        <mxCell id="WvgHAvw0tjZaKCDluKop-9" value="MG996R" style="rounded=1;whiteSpace=wrap;html=1;labelBackgroundColor=none;" vertex="1" parent="1">
          <mxGeometry x="580" y="230" width="120" height="80" as="geometry" />
        </mxCell>
        <mxCell id="WvgHAvw0tjZaKCDluKop-13" value="MG996R" style="rounded=1;whiteSpace=wrap;html=1;labelBackgroundColor=none;" vertex="1" parent="1">
          <mxGeometry x="580" y="110" width="120" height="80" as="geometry" />
        </mxCell>
        <mxCell id="WvgHAvw0tjZaKCDluKop-14" value="MG996R" style="rounded=1;whiteSpace=wrap;html=1;labelBackgroundColor=none;" vertex="1" parent="1">
          <mxGeometry x="580" y="360" width="120" height="80" as="geometry" />
        </mxCell>
        <mxCell id="WvgHAvw0tjZaKCDluKop-17" value="SG90" style="rounded=1;whiteSpace=wrap;html=1;labelBackgroundColor=none;" vertex="1" parent="1">
          <mxGeometry x="100" y="360" width="120" height="80" as="geometry" />
        </mxCell>
        <mxCell id="dXAgPAIM6FT5MK85hw38-3" style="edgeStyle=orthogonalEdgeStyle;rounded=0;orthogonalLoop=1;jettySize=auto;html=1;entryX=0.5;entryY=1;entryDx=0;entryDy=0;labelBackgroundColor=none;fontColor=default;" edge="1" parent="1" source="dXAgPAIM6FT5MK85hw38-1" target="WvgHAvw0tjZaKCDluKop-3">
          <mxGeometry relative="1" as="geometry" />
        </mxCell>
        <mxCell id="dXAgPAIM6FT5MK85hw38-1" value="&lt;font style=&quot;font-size: 15px;&quot;&gt;&lt;b&gt;라즈베리파이&lt;/b&gt;&lt;/font&gt;" style="rounded=1;whiteSpace=wrap;html=1;labelBackgroundColor=none;strokeWidth=3;" vertex="1" parent="1">
          <mxGeometry x="280" y="680" width="240" height="80" as="geometry" />
        </mxCell>
        <mxCell id="DKyKciuYVTxxolibCU_y-1" value="SG90" style="rounded=1;whiteSpace=wrap;html=1;labelBackgroundColor=none;" vertex="1" parent="1">
          <mxGeometry x="100" y="230" width="120" height="80" as="geometry" />
        </mxCell>
        <mxCell id="DKyKciuYVTxxolibCU_y-448" value="SG90" style="rounded=1;whiteSpace=wrap;html=1;labelBackgroundColor=none;" vertex="1" parent="1">
          <mxGeometry x="100" y="110" width="120" height="80" as="geometry" />
        </mxCell>
        <mxCell id="DKyKciuYVTxxolibCU_y-462" value="5V" style="text;html=1;align=center;verticalAlign=middle;resizable=0;points=[];autosize=1;strokeColor=none;fillColor=none;fontSize=15;" vertex="1" parent="1">
          <mxGeometry x="405" y="75" width="40" height="30" as="geometry" />
        </mxCell>
        <mxCell id="DKyKciuYVTxxolibCU_y-464" value="5V" style="text;html=1;align=center;verticalAlign=middle;resizable=0;points=[];autosize=1;strokeColor=none;fillColor=none;fontSize=15;" vertex="1" parent="1">
          <mxGeometry x="525" y="600" width="40" height="30" as="geometry" />
        </mxCell>
        <mxCell id="DKyKciuYVTxxolibCU_y-465" value="&lt;font style=&quot;font-size: 15px;&quot;&gt;5V&lt;/font&gt;" style="text;html=1;align=center;verticalAlign=middle;resizable=0;points=[];autosize=1;strokeColor=none;fillColor=none;" vertex="1" parent="1">
          <mxGeometry x="525" y="720" width="40" height="30" as="geometry" />
        </mxCell>
        <mxCell id="DKyKciuYVTxxolibCU_y-466" value="Serial" style="text;html=1;align=center;verticalAlign=middle;resizable=0;points=[];autosize=1;strokeColor=none;fillColor=none;fontSize=15;fontStyle=0" vertex="1" parent="1">
          <mxGeometry x="400" y="645" width="60" height="30" as="geometry" />
        </mxCell>
      </root>
    </mxGraphModel>
  </diagram>
</mxfile>
